<svg width="35" height="37" viewBox="0 0 35 37" fill="none" xmlns="http://www.w3.org/2000/svg">
<path d="M7.6 0C7.20311 0 6.7985 0.14541 6.51195 0.431953C6.22541 0.718496 6.08 1.12311 6.08 1.52V3.04H1.52C1.12311 3.04 0.718496 3.18541 0.431953 3.47195C0.14541 3.7585 0 4.16311 0 4.56V10.64V34.96C0 35.3569 0.14541 35.7615 0.431953 36.048C0.718496 36.3346 1.12311 36.48 1.52 36.48H33.44C33.8369 36.48 34.2415 36.3346 34.528 36.048C34.8146 35.7615 34.96 35.3569 34.96 34.96V10.64V4.56C34.96 4.16311 34.8146 3.7585 34.528 3.47195C34.2415 3.18541 33.8369 3.04 33.44 3.04H28.88V1.52C28.88 1.12311 28.7346 0.718496 28.448 0.431953C28.1615 0.14541 27.7569 0 27.36 0H25.84C25.4431 0 25.0385 0.14541 24.752 0.431953C24.4654 0.718496 24.32 1.12311 24.32 1.52V3.04H10.64V1.52C10.64 1.12311 10.4946 0.718496 10.208 0.431953C9.9215 0.14541 9.51689 0 9.12 0H7.6ZM7.6 1.52H9.12V6.08H7.6V1.52ZM25.84 1.52H27.36V3.67234C27.3464 3.75442 27.3464 3.83816 27.36 3.92023V6.08H25.84V1.52ZM1.52 4.56H6.08V6.08C6.08 6.47689 6.22541 6.8815 6.51195 7.16805C6.7985 7.45459 7.20311 7.6 7.6 7.6H9.12C9.51689 7.6 9.9215 7.45459 10.208 7.16805C10.4946 6.8815 10.64 6.47689 10.64 6.08V4.56H24.32V6.08C24.32 6.47689 24.4654 6.8815 24.752 7.16805C25.0385 7.45459 25.4431 7.6 25.84 7.6H27.36C27.7569 7.6 28.1615 7.45459 28.448 7.16805C28.7346 6.8815 28.88 6.47689 28.88 6.08V4.56H33.44V9.88H1.52V4.56ZM1.52 11.4H33.44V34.96H1.52V11.4ZM12.1481 14.4296C12.1118 14.4305 12.0756 14.434 12.0398 14.44H6.84C6.63844 14.44 6.44514 14.5201 6.30262 14.6626C6.1601 14.8051 6.08002 14.9984 6.08 15.2V20.3923C6.06643 20.4744 6.06643 20.5582 6.08 20.6402V25.7123C6.06643 25.7944 6.06643 25.8782 6.08 25.9602V31.16C6.08002 31.3616 6.1601 31.5549 6.30262 31.6974C6.44514 31.8399 6.63844 31.92 6.84 31.92H12.0323C12.1144 31.9336 12.1982 31.9336 12.2802 31.92H17.3523C17.4344 31.9336 17.5182 31.9336 17.6002 31.92H21.28H22.6723C22.7544 31.9336 22.8382 31.9336 22.9202 31.92H28.12C28.3216 31.92 28.5149 31.8399 28.6574 31.6974C28.7999 31.5549 28.88 31.3616 28.88 31.16V25.9677C28.8936 25.8856 28.8936 25.8018 28.88 25.7198V20.6477C28.8936 20.5656 28.8936 20.4818 28.88 20.3998V15.2C28.88 14.9984 28.7999 14.8051 28.6574 14.6626C28.5149 14.5201 28.3216 14.44 28.12 14.44H22.9277C22.8456 14.4264 22.7618 14.4264 22.6798 14.44H17.6077C17.5256 14.4264 17.4418 14.4264 17.3598 14.44H12.2877C12.2416 14.4323 12.1949 14.4288 12.1481 14.4296ZM7.6 15.96H11.4V19.76H7.6V15.96ZM12.92 15.96H16.72V19.76H12.92V15.96ZM18.24 15.96H22.04V19.76H18.24V15.96ZM23.56 15.96H27.36V19.76H23.56V15.96ZM7.6 21.28H11.4V25.08H7.6V21.28ZM12.92 21.28H16.72V25.08H12.92V21.28ZM18.24 21.28H22.04V25.08H18.24V21.28ZM23.56 21.28H27.36V25.08H23.56V21.28ZM7.6 26.6H11.4V30.4H7.6V26.6ZM12.92 26.6H16.72V30.4H12.92V26.6ZM18.24 26.6H22.04V30.4H21.28H18.24V26.6ZM23.56 26.6H27.36V30.4H23.56V26.6Z" fill="url(#paint0_linear_51_1278)"/>
<defs>
<linearGradient id="paint0_linear_51_1278" x1="17.48" y1="0" x2="17.48" y2="36.48" gradientUnits="userSpaceOnUse">
<stop stop-color="#FFC619"/>
<stop offset="0.473958" stop-color="#F69020"/>
<stop offset="1" stop-color="#EA422A"/>
</linearGradient>
</defs>
</svg>
