<svg width="74" height="73" viewBox="0 0 74 73" fill="none" xmlns="http://www.w3.org/2000/svg">
<path d="M68.783 0.00432848C66.6205 -0.0894219 64.5955 1.34808 64.033 3.50433L61.833 12.0543L55.833 20.7043L46.283 22.8543C44.6642 23.2231 43.183 24.0606 42.083 25.3043L35.483 32.6543C34.6455 33.5856 34.008 34.7418 33.683 35.9543L31.433 44.4543C30.8205 46.7356 32.158 49.1231 34.433 49.7543C36.683 50.3793 39.058 49.0418 39.733 46.8043L41.983 39.3543L45.533 35.8043C45.5017 36.7668 45.7392 37.4043 45.533 38.4043C45.0955 40.5606 44.433 42.3543 44.433 42.3543L38.233 54.3043C37.8955 54.9543 37.633 55.6481 37.483 56.3543L35.233 67.2043C34.6142 70.1418 36.883 73.0043 39.883 73.0043H40.383C42.6455 73.0043 44.633 71.3668 45.083 69.1543L47.183 58.8043L52.533 49.2043L56.883 54.8543L58.433 68.7543C58.7017 71.1606 60.7642 73.0043 63.183 73.0043C65.9892 73.0043 68.2205 70.4981 67.933 67.7043L66.433 52.9043C66.3392 52.0043 66.0705 51.1231 65.683 50.3043L61.133 40.7043C61.4767 39.7543 63.183 34.6418 62.583 28.9043L70.083 16.2543C70.1455 16.1418 70.1955 16.0293 70.233 15.9043L73.083 5.95433C73.808 3.42933 72.283 0.791829 69.733 0.154328C69.4267 0.0793285 69.0892 0.0168293 68.783 0.00432848ZM27.483 0.504329C26.8955 0.516829 26.2955 0.641829 25.733 0.904329C23.6267 1.87933 22.6205 4.34808 23.483 6.50433L26.283 13.6043L21.733 21.7043L14.083 22.7543L9.28299 17.2543L9.53299 15.0543C9.82049 18.7543 12.9142 21.7043 16.683 21.7043C20.6392 21.7043 23.883 18.4606 23.883 14.5043C23.883 10.5481 20.6392 7.30433 16.683 7.30433C13.4955 7.30433 10.7705 9.41683 9.83299 12.3043L10.283 8.55433C10.5767 6.05433 8.64549 3.78558 6.13299 3.65433H5.78299C3.47049 3.53558 1.42674 5.24808 1.18299 7.55433L0.0329903 18.3043C-0.129509 19.8168 0.31424 21.2918 1.23299 22.5043L8.98299 32.7543L6.18299 38.9543C5.04549 41.4606 4.59549 44.2168 4.88299 46.9543L7.13299 68.4543C7.39549 70.9543 9.52049 72.9043 12.033 72.9043C14.8955 72.9043 17.1705 70.4106 16.933 67.5543L15.333 48.3043L15.533 48.1543L20.533 55.1543L17.983 67.1043C17.3455 70.0606 19.658 72.9043 22.683 72.9043C24.858 72.9043 26.7392 71.4168 27.283 69.3043L30.683 56.2543C31.083 54.7043 30.883 53.0731 30.133 51.6543L24.783 41.5043L27.333 30.1043L35.033 17.2043C35.8642 15.8106 36.0392 14.1106 35.433 12.6043L31.633 3.25433C31.1705 2.09808 30.2642 1.22933 29.183 0.804329C28.6455 0.591829 28.0705 0.491829 27.483 0.504329ZM68.333 3.20433C68.5205 3.17933 68.733 3.20433 68.933 3.25433C69.7642 3.46058 70.2205 4.27933 69.983 5.10433L67.133 15.0043L59.633 27.6543C59.433 27.9668 59.3392 28.3356 59.383 28.7043C60.133 34.0543 57.933 40.3043 57.933 40.3043C57.7767 40.7106 57.7955 41.1606 57.983 41.5543L62.783 51.6543C63.0142 52.1481 63.1767 52.7106 63.233 53.2543L64.733 68.0543C64.833 69.0106 64.1455 69.8043 63.183 69.8043C62.3642 69.8043 61.7267 69.2168 61.633 68.4043L59.983 54.0043C59.958 53.7168 59.8517 53.4418 59.683 53.2043L53.633 45.3543C53.3142 44.9106 52.7892 44.6543 52.2392 44.6856C51.6955 44.7168 51.2017 45.0231 50.933 45.5043L44.283 57.4043C44.208 57.5481 44.158 57.6981 44.133 57.8543L41.933 68.5043C41.783 69.2481 41.1392 69.8043 40.383 69.8043H39.883C38.8455 69.8043 38.1205 68.9231 38.333 67.9043L40.633 57.0043C40.7267 56.5731 40.883 56.1356 41.083 55.7543L47.383 43.6043C47.4205 43.5418 47.4517 43.4731 47.483 43.4043C47.483 43.4043 48.1955 41.4606 48.683 39.0543C49.1705 36.6481 49.633 33.8356 48.483 31.4543C48.258 30.9918 47.8267 30.6668 47.3205 30.5793C46.8205 30.4918 46.3017 30.6481 45.933 31.0043L39.483 37.3043C39.2892 37.4981 39.1517 37.7418 39.083 38.0043L36.683 45.9043C36.5017 46.5106 35.8892 46.8231 35.283 46.6543C34.6705 46.4856 34.3642 45.8731 34.533 45.2543L36.783 36.7543C36.9767 36.0293 37.3267 35.3668 37.833 34.8043L44.483 27.4543C44.483 27.4356 44.483 27.4231 44.483 27.4043C45.1392 26.6668 46.0142 26.1731 46.983 25.9543L57.133 23.6543C57.5392 23.5731 57.8955 23.3418 58.133 23.0043L64.633 13.6043C64.7517 13.4356 64.833 13.2543 64.883 13.0543L67.133 4.30433C67.2892 3.69808 67.7642 3.28558 68.333 3.20433ZM27.583 3.70433C28.058 3.69183 28.483 3.96683 28.683 4.45433L32.433 13.8043C32.6642 14.3856 32.6017 15.0168 32.283 15.5543L24.433 28.7043C24.3455 28.8418 24.2767 28.9918 24.233 29.1543L21.483 41.3543C21.4017 41.7293 21.4517 42.1168 21.633 42.4543L27.333 53.1543C27.708 53.8606 27.783 54.6793 27.583 55.4543L24.183 68.5043C23.9955 69.2168 23.4205 69.7043 22.683 69.7043C21.6267 69.7043 20.858 68.7856 21.083 67.7543L23.833 55.1543C23.9267 54.7231 23.833 54.2668 23.583 53.9043L17.183 44.9543C16.933 44.6043 16.5517 44.3731 16.133 44.3106C15.708 44.2418 15.2767 44.3481 14.933 44.6043L12.683 46.3543C12.258 46.6918 12.033 47.2168 12.083 47.7543L13.783 67.8043C13.8705 68.8418 13.0705 69.7043 12.033 69.7043C11.133 69.7043 10.3767 69.0543 10.283 68.1543L8.08299 46.6043C7.85799 44.4293 8.17674 42.2418 9.08299 40.2543L12.283 33.2043C12.5267 32.6856 12.4642 32.0731 12.133 31.6043L3.78299 20.6043C3.35799 20.0418 3.15799 19.3043 3.23299 18.6043L4.38299 7.90433C4.45174 7.26058 4.93924 6.82308 5.58299 6.85433H5.98299C6.69549 6.89183 7.16424 7.49808 7.08299 8.20433L5.98299 17.5543C5.93299 18.0106 6.07674 18.4668 6.38299 18.8043L12.283 25.5043C12.6392 25.9231 13.1892 26.1356 13.733 26.0543L22.983 24.7543C23.4705 24.6793 23.8955 24.3856 24.133 23.9543L29.483 14.4543C29.7142 14.0418 29.7517 13.5481 29.583 13.1043L26.483 5.30433C26.2392 4.69808 26.4955 4.07933 27.083 3.80433C27.2392 3.72933 27.4267 3.71058 27.583 3.70433ZM48.683 7.30433C44.7267 7.30433 41.483 10.5481 41.483 14.5043C41.483 18.4606 44.7267 21.7043 48.683 21.7043C52.6392 21.7043 55.883 18.4606 55.883 14.5043C55.883 10.5481 52.6392 7.30433 48.683 7.30433ZM16.683 10.5043C18.908 10.5043 20.683 12.2793 20.683 14.5043C20.683 16.7293 18.908 18.5043 16.683 18.5043C14.458 18.5043 12.683 16.7293 12.683 14.5043C12.683 12.2793 14.458 10.5043 16.683 10.5043ZM48.683 10.5043C50.908 10.5043 52.683 12.2793 52.683 14.5043C52.683 16.7293 50.908 18.5043 48.683 18.5043C46.458 18.5043 44.683 16.7293 44.683 14.5043C44.683 12.2793 46.458 10.5043 48.683 10.5043Z" fill="url(#paint0_linear_51_1155)"/>
<defs>
<linearGradient id="paint0_linear_51_1155" x1="36.6318" y1="0" x2="36.6318" y2="73.0043" gradientUnits="userSpaceOnUse">
<stop stop-color="#FFC619"/>
<stop offset="0.489583" stop-color="#F69020"/>
<stop offset="1" stop-color="#EA422A"/>
</linearGradient>
</defs>
</svg>
