<svg width="48" height="26" viewBox="0 0 48 26" fill="none" xmlns="http://www.w3.org/2000/svg">
<path d="M24.0001 0C10.6702 0 0.240369 12.3496 0.240369 12.3496C0.0852502 12.5308 0 12.7615 0 13C0 13.2385 0.0852502 13.4692 0.240369 13.6504C0.240369 13.6504 10.6702 26 24.0001 26C37.3301 26 47.7599 13.6504 47.7599 13.6504C47.915 13.4692 48.0003 13.2385 48.0003 13C48.0003 12.7615 47.915 12.5308 47.7599 12.3496C47.7599 12.3496 37.3301 0 24.0001 0ZM24.0001 2C26.6662 2 29.2123 2.55316 31.5685 3.4043C33.1401 5.20828 34.0001 7.3937 34.0001 10C34.0001 15.5645 29.5646 20 24.0001 20C18.4357 20 14.0001 15.5645 14.0001 10C14.0001 7.52965 14.9536 5.21556 16.4435 3.40039C18.7964 2.55165 21.3384 2 24.0001 2ZM13.1935 4.81055C12.4422 6.39239 12.0001 8.15076 12.0001 10C12.0001 16.6355 17.3646 22 24.0001 22C30.6357 22 36.0001 16.6355 36.0001 10C36.0001 8.13383 35.6 6.40067 34.8693 4.8418C40.5286 7.71958 44.5869 11.8972 45.6056 13C44.0113 14.7259 34.9923 24 24.0001 24C13.008 24 3.98901 14.7259 2.39467 13C3.41712 11.8931 7.50182 7.6892 13.1935 4.81055ZM24.0001 5C22.6741 5 21.4023 5.52678 20.4646 6.46447C19.5269 7.40215 19.0001 8.67392 19.0001 10C19.0001 11.3261 19.5269 12.5979 20.4646 13.5355C21.4023 14.4732 22.6741 15 24.0001 15C25.3262 15 26.598 14.4732 27.5357 13.5355C28.4733 12.5979 29.0001 11.3261 29.0001 10C29.0001 8.67392 28.4733 7.40215 27.5357 6.46447C26.598 5.52678 25.3262 5 24.0001 5Z" fill="white"/>
</svg>
