<svg width="38" height="37" viewBox="0 0 38 37" fill="none" xmlns="http://www.w3.org/2000/svg">
<path d="M28.6522 3.16685e-05C27.1109 0.0281216 25.8726 0.476161 25.0295 1.28929C24.1863 2.10242 23.7932 3.23137 23.7642 4.41554C23.7642 4.41607 23.7642 4.41661 23.7642 4.41714C23.7456 5.18875 23.9055 5.88496 24.0894 6.65132C23.8777 6.97056 23.7288 7.35794 23.7899 7.87011C23.7899 7.87064 23.7899 7.87118 23.7899 7.87171C23.8607 8.46006 24.0232 8.91303 24.2928 9.25706C24.4162 9.41466 24.5972 9.4264 24.7556 9.52132C24.9229 10.0742 25.1509 10.599 25.4699 11.0188C25.6739 11.2872 25.8829 11.527 26.0737 11.7219C26.1195 11.7686 26.1751 11.7966 26.2146 11.8372C26.218 12.2537 26.2195 12.6445 26.189 13.0768C26.09 13.2927 25.7864 13.5527 25.1352 13.8215C24.767 13.9735 24.3257 14.1251 23.8587 14.2892C23.8834 14.0665 23.902 13.8314 23.9052 13.5685C23.9052 13.5679 23.9052 13.5674 23.9052 13.5669C23.9142 12.7928 23.7882 11.9708 23.3542 11.2462C22.952 10.5745 22.2156 10.0648 21.2962 9.87527C20.7123 9.29194 19.8913 9.02003 18.9676 9.02003C18.9628 9.01999 18.9579 9.01999 18.9531 9.02003C17.4118 9.04812 16.1735 9.49616 15.3304 10.3093C14.4873 11.1224 14.0957 12.2514 14.0668 13.4355C14.0668 13.4361 14.0668 13.4366 14.0668 13.4371C14.0598 13.7273 14.0846 14.0061 14.1196 14.2828C13.5621 14.0929 13.0194 13.9216 12.5709 13.7526C11.8976 13.4991 11.5803 13.2358 11.5011 13.0768C11.471 12.647 11.4719 12.2575 11.4754 11.842C11.5151 11.8014 11.5704 11.7734 11.6164 11.7267C11.8078 11.532 12.0168 11.2936 12.2218 11.0252C12.5421 10.6058 12.7709 10.0795 12.9393 9.52613C13.0989 9.43103 13.2813 9.42021 13.4053 9.26187C13.6748 8.91777 13.8357 8.4641 13.9066 7.87652V7.87491C13.9683 7.36069 13.8184 6.97002 13.6039 6.64972C13.7582 6.07203 13.9118 5.44247 13.9226 4.55327C13.9316 3.77919 13.8056 2.95562 13.3717 2.23101C12.9694 1.55927 12.2331 1.04955 11.3137 0.860071C10.73 0.276923 9.91021 0.00483636 8.98662 0.00483636C8.98128 0.00478423 8.97594 0.00478423 8.97061 0.00483636C7.42931 0.0333788 6.19241 0.480889 5.34947 1.29409C4.50653 2.1073 4.11365 3.23637 4.08424 4.42034C4.08424 4.42088 4.08424 4.42141 4.08424 4.42195C4.06559 5.19355 4.22551 5.88977 4.40935 6.65613C4.19772 6.97536 4.04876 7.36274 4.10986 7.87491C4.10986 7.87545 4.10986 7.87598 4.10986 7.87652C4.18071 8.46509 4.34264 8.91943 4.61275 9.26347C4.73682 9.4215 4.91957 9.43125 5.07881 9.52613C5.24633 10.0782 5.47128 10.6043 5.7899 11.0236C5.99389 11.292 6.20287 11.5302 6.39369 11.7251C6.43946 11.7718 6.49512 11.7998 6.53463 11.8404C6.53799 12.259 6.53985 12.6499 6.509 13.0848C6.42645 13.2644 6.22923 13.4682 5.75467 13.6934C5.25219 13.9318 4.54538 14.1533 3.79916 14.4253C3.05294 14.6973 2.25897 15.0214 1.55857 15.5496C0.858174 16.0778 0.258407 16.8484 0.0290813 17.8655C-0.000170259 17.9724 -0.00745177 18.0841 0.0076766 18.1939C0.022805 18.3036 0.0600293 18.4092 0.117101 18.5042C0.174173 18.5992 0.249909 18.6817 0.339734 18.7466C0.429558 18.8115 0.531609 18.8575 0.639721 18.8819C0.747833 18.9063 0.859764 18.9085 0.968753 18.8884C1.07774 18.8683 1.18153 18.8263 1.27384 18.765C1.36616 18.7037 1.44509 18.6243 1.50586 18.5316C1.56664 18.439 1.60799 18.3349 1.62744 18.2258C1.76671 17.6081 2.07212 17.2164 2.54514 16.8597C3.01816 16.5029 3.66679 16.2192 4.36131 15.966C5.05583 15.7128 5.78808 15.4918 6.45615 15.1748C7.12422 14.8579 7.7979 14.4102 8.09135 13.6213C8.11679 13.5528 8.13295 13.4811 8.13939 13.4083C8.20802 12.6455 8.18264 12.1095 8.18264 11.48C8.18253 11.3306 8.1416 11.184 8.06426 11.0562C7.98692 10.9283 7.87611 10.824 7.74381 10.7545C7.87747 10.8246 7.70334 10.7186 7.56603 10.5784C7.42873 10.4381 7.25779 10.2425 7.09678 10.0306C6.77475 9.60685 6.52263 9.06149 6.509 8.93355C6.49126 8.76704 6.42297 8.60996 6.31331 8.48341C6.20366 8.35686 6.05789 8.26691 5.8956 8.22566C5.86842 8.18762 5.78297 8.04927 5.73865 7.68113C5.72814 7.59302 5.74182 7.54927 5.75467 7.52417C5.88486 7.42674 5.98316 7.29281 6.03705 7.13939C6.09095 6.98596 6.09802 6.81998 6.05736 6.66253C5.81936 5.74657 5.70702 5.17293 5.72424 4.46038C5.74597 3.5985 6.00059 2.94484 6.48818 2.47445C6.97384 2.00592 7.7484 1.67074 8.98662 1.64484H8.98822C9.81513 1.64544 10.2383 1.9111 10.2919 2.00519C10.3541 2.11451 10.4406 2.20806 10.5448 2.2786C10.6489 2.34914 10.7679 2.39478 10.8925 2.41198C11.4907 2.49503 11.7525 2.71769 11.9655 3.07343C12.1786 3.42917 12.2892 3.9658 12.2826 4.53406C12.2713 5.46294 12.1227 6.16531 11.9751 6.60808C11.9204 6.77191 11.9188 6.94884 11.9706 7.11363C12.0224 7.27842 12.1248 7.42266 12.2634 7.52577C12.2761 7.55109 12.2898 7.59364 12.2794 7.67952C12.235 8.04861 12.1495 8.18775 12.1225 8.22566C11.9602 8.26691 11.8144 8.35686 11.7048 8.48341C11.5951 8.60996 11.5268 8.76704 11.5091 8.93355C11.4957 9.0593 11.2434 9.60514 10.9197 10.029C10.7578 10.241 10.5853 10.4363 10.4472 10.5768C10.3092 10.7172 10.1337 10.824 10.2663 10.7545C10.134 10.824 10.0232 10.9283 9.94582 11.0562C9.86847 11.184 9.82754 11.3306 9.82744 11.48C9.82744 12.1079 9.80198 12.6455 9.87068 13.4083C9.87713 13.4811 9.89329 13.5528 9.91873 13.6213C10.2749 14.5762 11.1636 14.9762 11.9928 15.2885C12.7432 15.5712 13.5315 15.7927 14.1965 16.0557C14.1043 16.2946 14.0536 16.5653 14.0924 16.8901C14.0924 16.8906 14.0924 16.8912 14.0924 16.8917C14.1632 17.4801 14.3241 17.933 14.5937 18.2771C14.7179 18.4355 14.9003 18.4478 15.0597 18.5429C15.2273 19.0949 15.4539 19.6195 15.7724 20.0388C15.9764 20.3072 16.1838 20.547 16.3746 20.7419C16.4204 20.7886 16.4761 20.8166 16.5156 20.8572C16.5189 21.2731 16.5202 21.6637 16.4899 22.0952C16.3874 22.3194 16.0582 22.5905 15.3672 22.8687C14.8901 23.0609 14.304 23.2478 13.6936 23.4741C13.8104 22.9931 13.9141 22.4712 13.9226 21.7685C13.9316 20.9944 13.8056 20.1708 13.3717 19.4462C12.9689 18.7737 12.2316 18.2625 11.3105 18.0737C10.7269 17.4924 9.90826 17.22 8.98662 17.22C8.98182 17.22 8.97701 17.22 8.97221 17.22C7.43088 17.2481 6.1926 17.6962 5.34947 18.5093C4.50635 19.3224 4.11318 20.4514 4.08424 21.6355C4.08424 21.6361 4.08424 21.6366 4.08424 21.6371C4.06559 22.4087 4.22551 23.105 4.40935 23.8713C4.19772 24.1906 4.04876 24.5779 4.10986 25.0901C4.10986 25.0906 4.10986 25.0912 4.10986 25.0917C4.18068 25.6801 4.34317 26.133 4.61275 26.4771C4.73624 26.6347 4.91718 26.6464 5.0756 26.7413C5.24295 27.2942 5.4709 27.819 5.7899 28.2388C5.99389 28.5072 6.20287 28.747 6.39369 28.9419C6.43946 28.9886 6.49512 29.0166 6.53463 29.0572C6.53798 29.4748 6.5397 29.8662 6.509 30.3C6.4266 30.4795 6.2276 30.6834 5.75307 30.9086C5.25065 31.147 4.54542 31.3701 3.79916 31.6421C3.0529 31.9141 2.25744 32.2382 1.55697 32.7664C0.856508 33.2946 0.256813 34.0636 0.0274797 35.0807C-0.0204424 35.2928 0.0178525 35.5153 0.133943 35.6992C0.250034 35.8831 0.434415 36.0134 0.64654 36.0614C0.858665 36.1094 1.08116 36.0711 1.26511 35.9551C1.44906 35.8391 1.57939 35.6547 1.62744 35.4426C1.7667 34.8249 2.07205 34.4316 2.54514 34.0749C3.01822 33.7181 3.66513 33.436 4.35971 33.1828C5.05428 32.9296 5.78809 32.7086 6.45615 32.3916C7.12421 32.0747 7.79657 31.6255 8.08975 30.8365C8.11518 30.768 8.13134 30.6963 8.13779 30.6235C8.20642 29.8607 8.18264 29.3246 8.18264 28.6952C8.18238 28.5456 8.14121 28.3989 8.06358 28.2711C7.98594 28.1432 7.87481 28.039 7.74221 27.9697C7.87587 28.0398 7.70173 27.9354 7.56443 27.7951C7.42713 27.6549 7.25619 27.4593 7.09518 27.2474C6.77315 26.8237 6.52103 26.2767 6.5074 26.1487C6.48957 25.9829 6.42161 25.8265 6.31259 25.7003C6.20356 25.5741 6.05866 25.4842 5.89721 25.4425C5.87027 25.4049 5.78315 25.266 5.73865 24.8963C5.72814 24.8082 5.74182 24.7645 5.75467 24.7394C5.88486 24.6419 5.98316 24.508 6.03705 24.3546C6.09095 24.2012 6.09802 24.0352 6.05736 23.8777C5.81936 22.9618 5.70702 22.3881 5.72424 21.6756C5.74532 20.813 5.99864 20.1602 6.48658 19.6896C6.973 19.2205 7.74993 18.8863 8.99143 18.8616C9.81452 18.8636 10.2378 19.1264 10.2903 19.2188C10.3525 19.3281 10.439 19.4217 10.5432 19.4922C10.6473 19.5627 10.7663 19.6084 10.8909 19.6256C11.4891 19.7086 11.7509 19.9329 11.9639 20.2886C12.177 20.6444 12.2892 21.181 12.2826 21.7493C12.2713 22.6781 12.1227 23.3805 11.9751 23.8233C11.9206 23.9867 11.919 24.1632 11.9704 24.3276C12.0219 24.4921 12.1238 24.6361 12.2618 24.7394C12.2745 24.7641 12.2884 24.8069 12.2778 24.8947C12.2333 25.2651 12.1459 25.4053 12.1193 25.4425C11.9578 25.4842 11.8129 25.5741 11.7039 25.7003C11.5949 25.8265 11.5269 25.9829 11.5091 26.1487C11.4957 26.2745 11.2418 26.8203 10.9181 27.2442C10.7562 27.4561 10.5853 27.6515 10.4472 27.7919C10.3092 27.9324 10.1337 28.0376 10.2663 27.9681C10.1337 28.0377 10.0228 28.1423 9.9454 28.2704C9.86804 28.3986 9.82725 28.5455 9.82744 28.6952C9.82744 29.3231 9.80037 29.8607 9.86908 30.6235C9.87977 30.7409 9.91563 30.8546 9.97423 30.9568C10.0328 31.0591 10.1128 31.1475 10.2086 31.2161C10.5524 31.7461 11.0396 32.1361 11.5747 32.39C12.2428 32.707 12.9767 32.928 13.6712 33.1812C14.3657 33.4344 15.0127 33.7181 15.4858 34.0749C15.9588 34.4316 16.2642 34.8234 16.4035 35.441C16.426 35.5472 16.4694 35.6478 16.5311 35.7371C16.5929 35.8264 16.6717 35.9026 16.7631 35.9611C16.8545 36.0197 16.9566 36.0596 17.0635 36.0784C17.1704 36.0972 17.28 36.0946 17.3859 36.0708C17.4918 36.0469 17.5919 36.0023 17.6804 35.9395C17.7689 35.8766 17.844 35.7968 17.9015 35.7047C17.9589 35.6126 17.9975 35.51 18.015 35.4029C18.0325 35.2958 18.0286 35.1862 18.0034 35.0807C17.7741 34.0636 17.1727 33.293 16.4723 32.7648C15.7719 32.2366 14.978 31.9125 14.2317 31.6405C13.4855 31.3685 12.7803 31.147 12.2778 30.9086C11.7893 30.6768 11.5756 30.4655 11.4995 30.2824C11.4702 29.8571 11.4704 29.4695 11.4738 29.0572C11.5137 29.0164 11.5702 28.9889 11.6164 28.9419C11.8078 28.7472 12.0168 28.5088 12.2218 28.2404C12.5421 27.821 12.7709 27.2947 12.9393 26.7413C13.0987 26.6463 13.2815 26.6352 13.4053 26.4771C13.6621 26.1492 13.8181 25.7182 13.8938 25.1702C14.5616 24.9038 15.2858 24.6694 15.979 24.3902C16.8256 24.0494 17.7129 23.6025 18.0723 22.6365C18.0977 22.568 18.1139 22.4963 18.1203 22.4235C18.189 21.6607 18.1636 21.1246 18.1636 20.4952C18.1635 20.3458 18.1225 20.1992 18.0452 20.0714C17.9679 19.9435 17.857 19.8392 17.7247 19.7697C17.8584 19.8398 17.6843 19.7354 17.547 19.5951C17.4097 19.4549 17.2387 19.2593 17.0777 19.0474C16.7557 18.6237 16.5036 18.0767 16.4899 17.9487C16.4722 17.7822 16.4039 17.6252 16.2943 17.4986C16.1846 17.3721 16.0388 17.2821 15.8765 17.2409C15.8493 17.2026 15.7639 17.0647 15.7196 16.6963C15.7088 16.6061 15.7238 16.5621 15.7372 16.5378C15.8671 16.4405 15.9652 16.3068 16.0191 16.1537C16.073 16.0006 16.0802 15.8349 16.0399 15.6777C15.8019 14.7618 15.6896 14.1881 15.7068 13.4756C15.7279 12.613 15.9812 11.9602 16.4691 11.4896C16.9555 11.0205 17.7325 10.6863 18.974 10.6616C19.7952 10.6642 20.2216 10.9262 20.2744 11.0188C20.3365 11.1279 20.4228 11.2213 20.5266 11.2919C20.6304 11.3624 20.7491 11.4081 20.8734 11.4256C21.4716 11.5086 21.7334 11.7329 21.9465 12.0886C22.1595 12.4444 22.2718 12.9794 22.2652 13.5476C22.2539 14.4765 22.1053 15.1805 21.9577 15.6233C21.9035 15.7865 21.9021 15.9626 21.9535 16.1268C22.005 16.2909 22.1067 16.4346 22.2444 16.5378C22.2571 16.5622 22.2711 16.6046 22.2604 16.6931C22.2604 16.6937 22.2604 16.6942 22.2604 16.6947C22.2158 17.065 22.1285 17.2036 22.1018 17.2409C21.9404 17.2826 21.7955 17.3725 21.6864 17.4987C21.5774 17.6249 21.5095 17.7813 21.4916 17.9471C21.4782 18.0729 21.2244 18.6203 20.9006 19.0442C20.7388 19.2561 20.5679 19.4515 20.4298 19.5919C20.2917 19.7324 20.1163 19.8376 20.2488 19.7681C20.1165 19.8376 20.0057 19.9419 19.9284 20.0698C19.851 20.1976 19.8101 20.3442 19.81 20.4936C19.81 21.1215 19.7829 21.6591 19.8516 22.4219C19.8586 22.4948 19.8753 22.5664 19.9013 22.6349C20.259 23.5953 21.1538 23.994 21.9881 24.3069C22.5955 24.5348 23.2127 24.7274 23.7867 24.93C23.7885 24.9836 23.7831 25.0335 23.7899 25.0901C23.7899 25.0906 23.7899 25.0912 23.7899 25.0917C23.8607 25.6801 24.0232 26.133 24.2928 26.4771C24.4162 26.6347 24.5972 26.6464 24.7556 26.7413C24.9229 27.2942 25.1509 27.819 25.4699 28.2388C25.6739 28.5072 25.8829 28.747 26.0737 28.9419C26.1195 28.9886 26.1751 29.0166 26.2146 29.0572C26.218 29.4748 26.2197 29.8662 26.189 30.3C26.1066 30.4795 25.9076 30.6834 25.4331 30.9086C24.9307 31.147 24.2254 31.3701 23.4792 31.6421C22.7329 31.9141 21.9374 32.2382 21.237 32.7664C20.5365 33.2946 19.9368 34.0636 19.7075 35.0807C19.6595 35.2928 19.6977 35.5154 19.8138 35.6993C19.9299 35.8833 20.1143 36.0136 20.3265 36.0616C20.5387 36.1096 20.7612 36.0714 20.9452 35.9553C21.1291 35.8392 21.2594 35.6548 21.3074 35.4426C21.4467 34.825 21.7521 34.4316 22.2251 34.0749C22.6982 33.7181 23.3451 33.436 24.0397 33.1828C24.7343 32.9296 25.4681 32.7086 26.1362 32.3916C26.8042 32.0747 27.4766 31.6255 27.7697 30.8365C27.7952 30.768 27.8113 30.6963 27.8178 30.6235C27.8864 29.8607 27.8626 29.3246 27.8626 28.6952C27.8624 28.5456 27.8212 28.3989 27.7436 28.2711C27.6659 28.1432 27.5548 28.039 27.4222 27.9697C27.5559 28.0398 27.3817 27.9354 27.2444 27.7951C27.1071 27.6549 26.9362 27.4593 26.7752 27.2474C26.4531 26.8237 26.201 26.2767 26.1874 26.1487C26.1696 25.9829 26.1016 25.8265 25.9926 25.7003C25.8836 25.5741 25.7387 25.4842 25.5772 25.4425C25.5503 25.4049 25.4631 25.266 25.4187 24.8963C25.4182 24.8927 25.419 24.8918 25.4187 24.8883C25.4712 24.8148 25.5113 24.7331 25.5372 24.6465C25.6329 24.5458 25.7015 24.4224 25.7366 24.288C25.7716 24.1535 25.7719 24.0123 25.7374 23.8777C25.4994 22.9618 25.387 22.3881 25.4042 21.6756C25.4253 20.813 25.6786 20.1602 26.1666 19.6896C26.653 19.2205 27.4299 18.8863 28.6714 18.8616C29.4945 18.8636 29.9178 19.1264 29.9703 19.2188C30.0325 19.3281 30.119 19.4217 30.2232 19.4922C30.3273 19.5627 30.4463 19.6084 30.5709 19.6256C31.1691 19.7086 31.4309 19.9329 31.6439 20.2886C31.857 20.6444 31.9692 21.181 31.9626 21.7493C31.9513 22.6781 31.8027 23.3805 31.6551 23.8233C31.6006 23.9867 31.599 24.1632 31.6504 24.3276C31.7019 24.4921 31.8038 24.6361 31.9418 24.7394C31.9546 24.7638 31.9685 24.8062 31.9578 24.8947C31.9133 25.2651 31.8259 25.4053 31.7993 25.4425C31.6378 25.4842 31.4929 25.5741 31.3839 25.7003C31.2749 25.8265 31.2069 25.9829 31.1891 26.1487C31.1757 26.2745 30.9218 26.8203 30.5981 27.2442C30.4362 27.4561 30.2653 27.6515 30.1272 27.7919C29.9892 27.9324 29.8137 28.0376 29.9463 27.9681C29.8137 28.0377 29.7028 28.1423 29.6254 28.2704C29.548 28.3986 29.5073 28.5455 29.5074 28.6952C29.5074 29.3231 29.4804 29.8607 29.5491 30.6235C29.5598 30.7409 29.5956 30.8546 29.6542 30.9568C29.7128 31.0591 29.7928 31.1475 29.8886 31.2161C30.2324 31.7461 30.7196 32.1361 31.2547 32.39C31.9228 32.707 32.6567 32.928 33.3512 33.1812C34.0457 33.4344 34.6927 33.7181 35.1658 34.0749C35.6388 34.4316 35.9442 34.8234 36.0835 35.441C36.106 35.5472 36.1494 35.6478 36.2111 35.7371C36.2729 35.8264 36.3517 35.9026 36.4431 35.9611C36.5345 36.0197 36.6366 36.0596 36.7435 36.0784C36.8504 36.0972 36.96 36.0946 37.0659 36.0708C37.1718 36.0469 37.2719 36.0023 37.3604 35.9395C37.4489 35.8766 37.524 35.7968 37.5815 35.7047C37.6389 35.6126 37.6775 35.51 37.695 35.4029C37.7125 35.2958 37.7086 35.1862 37.6834 35.0807C37.4541 34.0636 36.8527 33.293 36.1523 32.7648C35.4519 32.2366 34.658 31.9125 33.9117 31.6405C33.1655 31.3685 32.4603 31.147 31.9578 30.9086C31.4693 30.6768 31.2556 30.4655 31.1795 30.2824C31.1502 29.8571 31.1504 29.4695 31.1538 29.0572C31.1937 29.0164 31.2502 28.9889 31.2964 28.9419C31.4878 28.7472 31.6968 28.5088 31.9018 28.2404C32.2221 27.821 32.4509 27.2947 32.6193 26.7413C32.7787 26.6463 32.9615 26.6352 33.0853 26.4771C33.3548 26.133 33.5157 25.6793 33.5866 25.0917V25.0901C33.6483 24.576 33.4983 24.1852 33.2839 23.8649C33.4381 23.2873 33.5918 22.6576 33.6026 21.7685C33.6116 20.9944 33.4856 20.1708 33.0517 19.4462C32.6489 18.7736 31.9116 18.2625 30.9905 18.0737C30.4069 17.4924 29.5883 17.22 28.6666 17.22C28.6618 17.22 28.657 17.22 28.6522 17.22C27.1109 17.2481 25.8726 17.6962 25.0295 18.5093C24.1863 19.3224 23.7932 20.4514 23.7642 21.6355C23.7642 21.6361 23.7642 21.6366 23.7642 21.6371C23.7509 22.1892 23.8404 22.7089 23.9532 23.2371C23.4525 23.0701 22.9698 22.9236 22.5631 22.771C21.8821 22.5156 21.5606 22.2496 21.482 22.0904C21.4521 21.6617 21.4529 21.2717 21.4564 20.8572C21.4962 20.8164 21.5527 20.7889 21.5989 20.7419C21.7904 20.5472 21.9993 20.3072 22.2043 20.0388C22.5246 19.6194 22.7534 19.0945 22.9218 18.5413C23.0812 18.4463 23.264 18.4352 23.3879 18.2771C23.6576 17.9326 23.8184 17.4786 23.8892 16.8901C23.9276 16.5713 23.8792 16.3045 23.7899 16.0685C24.4306 15.825 25.1113 15.6043 25.7598 15.3366C26.5746 15.0003 27.4222 14.5511 27.7697 13.6165C27.7952 13.548 27.8113 13.4763 27.8178 13.4035C27.8864 12.6407 27.8626 12.1046 27.8626 11.4752C27.8624 11.3256 27.8212 11.1789 27.7436 11.0511C27.6659 10.9232 27.5548 10.819 27.4222 10.7497C27.5559 10.8198 27.3817 10.7154 27.2444 10.5751C27.1071 10.4349 26.9362 10.2393 26.7752 10.0274C26.4531 9.60365 26.201 9.05668 26.1874 8.92874C26.1696 8.76294 26.1016 8.60651 25.9926 8.48032C25.8836 8.35413 25.7387 8.26418 25.5772 8.22245C25.5503 8.18492 25.4631 8.04597 25.4187 7.67632C25.4081 7.58822 25.4218 7.54447 25.4347 7.51937C25.5649 7.42194 25.6632 7.288 25.7171 7.13458C25.771 6.98116 25.778 6.81518 25.7374 6.65773C25.4994 5.74176 25.387 5.16813 25.4042 4.45558C25.4253 3.59302 25.6786 2.94022 26.1666 2.46964C26.653 2.00053 27.4299 1.66626 28.6714 1.64163C29.4945 1.64361 29.9178 1.90641 29.9703 1.99878C30.0325 2.10811 30.119 2.20166 30.2232 2.27219C30.3273 2.34273 30.4463 2.38837 30.5709 2.40558C31.1691 2.48862 31.4309 2.71288 31.6439 3.06863C31.857 3.42437 31.9692 3.961 31.9626 4.52925C31.9513 5.45814 31.8027 6.16051 31.6551 6.60327C31.6006 6.76673 31.599 6.9432 31.6504 7.10765C31.7019 7.27209 31.8038 7.41614 31.9418 7.51937C31.9546 7.54384 31.9685 7.58623 31.9578 7.67472C31.9133 8.04509 31.8259 8.18527 31.7993 8.22245C31.6378 8.26418 31.4929 8.35413 31.3839 8.48032C31.2749 8.60651 31.2069 8.76294 31.1891 8.92874C31.1757 9.0545 30.9218 9.60034 30.5981 10.0242C30.4362 10.2361 30.2653 10.4315 30.1272 10.5719C29.9892 10.7124 29.8137 10.8176 29.9463 10.7481C29.8137 10.8177 29.7028 10.9223 29.6254 11.0504C29.548 11.1786 29.5073 11.3255 29.5074 11.4752C29.5074 12.1031 29.4804 12.6407 29.5491 13.4035C29.5598 13.5209 29.5956 13.6346 29.6542 13.7368C29.7128 13.8391 29.7928 13.9275 29.8886 13.9961C30.2324 14.5261 30.7196 14.9161 31.2547 15.17C31.9228 15.487 32.6567 15.708 33.3512 15.9612C34.0457 16.2144 34.6927 16.4981 35.1658 16.8549C35.6388 17.2116 35.9442 17.6034 36.0835 18.221C36.106 18.3272 36.1494 18.4278 36.2111 18.5171C36.2729 18.6064 36.3517 18.6826 36.4431 18.7411C36.5345 18.7997 36.6366 18.8396 36.7435 18.8584C36.8504 18.8772 36.96 18.8746 37.0659 18.8508C37.1718 18.8269 37.2719 18.7823 37.3604 18.7195C37.4489 18.6566 37.524 18.5768 37.5815 18.4847C37.6389 18.3926 37.6775 18.29 37.695 18.1829C37.7125 18.0758 37.7086 17.9662 37.6834 17.8607C37.4541 16.8436 36.8527 16.073 36.1523 15.5448C35.4519 15.0166 34.658 14.6925 33.9117 14.4205C33.1655 14.1485 32.4603 13.927 31.9578 13.6886C31.4693 13.4568 31.2556 13.2455 31.1795 13.0624C31.1502 12.6371 31.1504 12.2495 31.1538 11.8372C31.1937 11.7964 31.2502 11.7689 31.2964 11.7219C31.4878 11.5272 31.6968 11.2888 31.9018 11.0204C32.2221 10.601 32.4509 10.0747 32.6193 9.52132C32.7787 9.42626 32.9615 9.41521 33.0853 9.25706C33.3548 8.91297 33.5157 8.4593 33.5866 7.87171V7.87011C33.6483 7.35598 33.4983 6.96519 33.2839 6.64491C33.4381 6.06725 33.5918 5.43758 33.6026 4.54847C33.6116 3.77439 33.4856 2.95081 33.0517 2.2262C32.6489 1.55362 31.9116 1.04248 30.9905 0.853664C30.4069 0.272416 29.5883 3.16685e-05 28.6666 3.16685e-05C28.6618 -1.05562e-05 28.657 -1.05562e-05 28.6522 3.16685e-05Z" fill="url(#paint0_linear_51_1240)"/>
<defs>
<linearGradient id="paint0_linear_51_1240" x1="18.8529" y1="0" x2="18.8529" y2="36.0908" gradientUnits="userSpaceOnUse">
<stop stop-color="#FFC619"/>
<stop offset="0.479167" stop-color="#F69020"/>
<stop offset="1" stop-color="#EA422A"/>
</linearGradient>
</defs>
</svg>
