<svg width="80" height="77" viewBox="0 0 80 77" fill="none" xmlns="http://www.w3.org/2000/svg">
<path d="M40 0C34.45 0 31.0188 1.23125 30.1 1.6C29.9375 1.64375 29.7875 1.7125 29.65 1.8C29.6313 1.8 29.6188 1.8 29.6 1.8C29.5688 1.8125 29.5312 1.83125 29.5 1.85C29.4813 1.86875 29.4688 1.88125 29.45 1.9C29.4188 1.9125 29.3813 1.93125 29.35 1.95C29.3312 1.96875 29.3188 1.98125 29.3 2C29.2438 2.04375 29.1938 2.09375 29.15 2.15C29.1313 2.18125 29.1125 2.21875 29.1 2.25C29.0812 2.26875 29.0688 2.28125 29.05 2.3C29.0312 2.33125 29.0125 2.36875 29 2.4L26.15 6.6L18.85 8.95C18.75 8.975 18.6438 9.00625 18.55 9.05C17.1313 9.5125 15.4563 10.5625 13.6 12.45C11.575 14.5125 9.45 17.5125 7.9 21.7C6.7 24.9375 4.7625 30.0188 3.1 34.65C2.26875 36.9688 1.50625 39.1375 0.95 41C0.39375 42.8625 0 44.2625 0 45.5V68.8C0 69.6813 0.71875 70.4 1.6 70.4H12.8C13.6812 70.4 14.4 69.6813 14.4 68.8V46.45C14.4 46.4562 14.4 46.45 14.4 46.4C14.4125 46.325 14.4563 46.1375 14.55 45.9C14.7 45.5187 14.9563 45.025 15.25 44.45C15.8313 43.2938 16.6438 41.8563 17.45 40.5C17.525 40.3688 17.525 40.3812 17.6 40.25V75.2C17.6 76.0813 18.3188 76.8 19.2 76.8H60.8C61.6813 76.8 62.4 76.0813 62.4 75.2L62.3 43.35V43.3L62.35 40.15C62.4562 40.325 62.4438 40.3188 62.55 40.5C63.3563 41.8563 64.1688 43.2938 64.75 44.45C65.0438 45.025 65.3 45.5187 65.45 45.9C65.5625 46.1875 65.5938 46.425 65.6 46.45V68.8C65.6 69.6813 66.3187 70.4 67.2 70.4H78.4C79.2812 70.4 80 69.6813 80 68.8V45.5C80 44.2625 79.6063 42.8625 79.05 41C78.4938 39.1375 77.7313 36.9688 76.9 34.65C75.2375 30.0188 73.3 24.9375 72.1 21.7C70.55 17.5125 68.425 14.5125 66.4 12.45C64.525 10.5438 62.8312 9.5 61.4 9.05C61.3188 9.0125 61.2375 8.975 61.15 8.95L53.85 6.6L51.05 2.45C51.0188 2.4 50.9875 2.35 50.95 2.3C50.9188 2.2625 50.8875 2.23125 50.85 2.2C50.85 2.18125 50.85 2.16875 50.85 2.15C50.7 1.98125 50.5125 1.84375 50.3 1.75C50.3 1.75 50.2562 1.7 50.25 1.7C50.1562 1.65625 50.05 1.625 49.95 1.6C49.1125 1.2625 45.6562 0 40 0ZM40 3.2C43.8812 3.2 46.3563 3.76875 47.7 4.2C47.4688 5.0125 47.1063 6.06875 46.45 7.2C45.225 9.3125 43.4062 11.2 40 11.2C36.5938 11.2 34.775 9.3125 33.55 7.2C32.8937 6.06875 32.5312 5.0125 32.3 4.2C33.6437 3.76875 36.1188 3.2 40 3.2ZM29.95 6.8C30.2188 7.46875 30.3813 8.075 30.8 8.8C31.7812 10.4938 33.325 12.3125 35.5 13.4L31.25 17.65L28.95 8.35L29.95 6.8ZM50.05 6.8L51.05 8.35L48.75 17.65L44.5 13.4C46.675 12.3125 48.2188 10.4938 49.2 8.8C49.6188 8.075 49.7812 7.46875 50.05 6.8ZM26.05 10.05L28.85 21.2C28.9875 21.7688 29.4188 22.2188 29.9813 22.375C30.5375 22.525 31.1438 22.3688 31.55 21.95L39.2 14.3C39.4688 14.3188 39.7188 14.4 40 14.4C40.2812 14.4 40.5312 14.3188 40.8 14.3L48.45 21.95C48.8563 22.3688 49.4625 22.525 50.0187 22.375C50.5812 22.2188 51.0125 21.7688 51.15 21.2L53.95 10.05L58.9 11.6C58.6875 12.6125 58.1938 14.8188 57.85 19.05C57.475 23.6812 57.525 29.3438 58.95 34.3C58.9625 34.35 58.9813 34.4 59 34.45C59.0063 34.4625 58.9938 34.4875 59 34.5C59.025 34.6562 59.075 34.8063 59.15 34.95C59.175 35.0312 59.175 35.1188 59.2 35.2L59.1 43.3L59.2 73.6H20.8V35.4C23.0938 31.0625 23.0125 25.0688 22.5 19.9C22.0438 15.3375 21.4 12.6812 21.15 11.6L26.05 10.05ZM18.2 12.85C18.5625 14.525 19.025 16.9375 19.35 20.2C19.7875 24.6063 19.6812 29.6875 18.5 32.95C18.2875 33.1063 18.1125 33.3125 18 33.55C18 33.55 16.35 36.1188 14.7 38.9C13.875 40.2938 13.0375 41.7313 12.4 43C12.0813 43.6375 11.8062 44.2125 11.6 44.75C11.3938 45.2875 11.2 45.7062 11.2 46.4V67.2H3.2V45.5C3.2 45.1875 3.46875 43.7188 4 41.95C4.53125 40.1813 5.28125 37.9875 6.1 35.7C7.74375 31.125 9.68125 26.1375 10.9 22.85C12.3 19.0812 14.1938 16.4375 15.9 14.7C16.7125 13.875 17.5375 13.2938 18.2 12.85ZM61.85 12.85C62.5063 13.2875 63.3 13.8875 64.1 14.7C65.8063 16.4375 67.7 19.0812 69.1 22.85C70.3187 26.1375 72.2562 31.125 73.9 35.7C74.7188 37.9875 75.4688 40.1813 76 41.95C76.5312 43.7188 76.8 45.1875 76.8 45.5V67.2H68.8V46.4C68.8 45.7062 68.6062 45.2875 68.4 44.75C68.1937 44.2125 67.9188 43.6375 67.6 43C66.9625 41.7313 66.125 40.2938 65.3 38.9C63.65 36.1188 62 33.55 62 33.55C61.9562 33.4625 61.9062 33.3812 61.85 33.3C60.6688 29.0188 60.6938 23.6875 61.05 19.3C61.2812 16.4813 61.5812 14.375 61.85 12.85Z" fill="url(#paint0_linear_51_1129)"/>
<defs>
<linearGradient id="paint0_linear_51_1129" x1="40" y1="0" x2="40" y2="76.8" gradientUnits="userSpaceOnUse">
<stop stop-color="#FFC619"/>
<stop offset="0.489583" stop-color="#F69020"/>
<stop offset="1" stop-color="#EA422A"/>
</linearGradient>
</defs>
</svg>
