<svg width="80" height="80" viewBox="0 0 80 80" fill="none" xmlns="http://www.w3.org/2000/svg">
<path d="M39.5499 0C17.7284 0 0 17.7284 0 39.5499C0 61.3715 17.7284 79.0998 39.5499 79.0998C61.3715 79.0998 79.0998 61.3715 79.0998 39.5499C79.0998 17.7284 61.3715 0 39.5499 0ZM39.5499 3.41984C44.0025 3.41984 48.2615 4.22858 52.198 5.6975L44.0313 24.7519C42.6112 24.3202 41.1082 24.08 39.5499 24.08C31.0273 24.08 24.08 31.0273 24.08 39.5499C24.08 41.1082 24.3202 42.6112 24.7519 44.0313L5.6975 52.198C4.22858 48.2615 3.41984 44.0025 3.41984 39.5499C3.41984 19.5755 19.5755 3.41984 39.5499 3.41984ZM55.3289 7.0782C62.5997 10.6137 68.4861 16.5001 72.0216 23.7709L52.9908 31.9275C51.6096 29.5045 49.5954 27.4902 47.1723 26.1091L55.3289 7.0782ZM73.4023 26.9019C74.8713 30.8383 75.68 35.0973 75.68 39.5499C75.68 59.5244 59.5244 75.68 39.5499 75.68C35.0973 75.68 30.8383 74.8713 26.9019 73.4023L35.0685 54.348C36.4886 54.7796 37.9916 55.0198 39.5499 55.0198C48.0725 55.0198 55.0198 48.0725 55.0198 39.5499C55.0198 37.9916 54.7796 36.4886 54.348 35.0685L73.4023 26.9019ZM39.5499 27.4998C46.2252 27.4998 51.6 32.8746 51.6 39.5499C51.6 46.2252 46.2252 51.6 39.5499 51.6C32.8746 51.6 27.4998 46.2252 27.4998 39.5499C27.4998 32.8746 32.8746 27.4998 39.5499 27.4998ZM39.5499 34.3899C36.6999 34.3899 34.3899 36.6999 34.3899 39.5499C34.3899 42.4 36.6999 44.7099 39.5499 44.7099C42.4 44.7099 44.7099 42.4 44.7099 39.5499C44.7099 36.6999 42.4 34.3899 39.5499 34.3899ZM26.1091 47.1723C27.4902 49.5954 29.5045 51.6096 31.9275 52.9908L23.7709 72.0216C16.5001 68.4861 10.6137 62.5997 7.0782 55.3289L26.1091 47.1723Z" fill="url(#paint0_linear_51_1145)"/>
<defs>
<linearGradient id="paint0_linear_51_1145" x1="39.5499" y1="0" x2="39.5499" y2="79.0998" gradientUnits="userSpaceOnUse">
<stop stop-color="#FFC619"/>
<stop offset="0.5" stop-color="#F69020"/>
<stop offset="1" stop-color="#EA422A"/>
</linearGradient>
</defs>
</svg>
